<!DOCTYPE svg PUBLIC "-//W3C//DTD SVG 20010904//EN" "http://www.w3.org/TR/2001/REC-SVG-20010904/DTD/svg10.dtd">
<svg version="1.0" xmlns="http://www.w3.org/2000/svg" width="176px" height="240px" viewBox="0 0 1760 2400" preserveAspectRatio="xMidYMid meet">
<g id="layer101" fill="#c51b31" stroke="none">
<path d="M737 2336 c-392 -204 -617 -398 -707 -611 l-25 -60 -3 -832 -2 -833 880 0 880 0 0 813 c0 899 3 860 -65 982 -70 125 -197 249 -385 374 -132 87 -371 218 -416 227 -25 5 -54 -6 -157 -60z m-112 -738 c46 -20 52 -27 68 -73 21 -64 21 -95 1 -143 -35 -81 -21 -136 36 -144 20 -2 25 -9 25 -33 1 -20 6 -31 18 -33 9 -2 17 -9 17 -15 0 -7 34 -48 75 -92 41 -44 123 -133 182 -197 60 -64 116 -119 126 -123 9 -3 17 -11 17 -16 0 -6 45 -60 100 -119 55 -60 100 -118 100 -128 0 -43 -54 -57 -85 -22 -10 11 -21 20 -25 20 -4 0 -38 -28 -75 -62 -64 -58 -68 -61 -81 -43 -16 22 -18 49 -4 75 9 16 6 18 -29 13 -26 -4 -46 0 -61 10 -20 14 -19 16 52 81 l73 66 -27 27 c-15 16 -75 81 -134 146 -59 64 -111 117 -115 117 -10 0 -219 -226 -219 -237 0 -5 -11 -15 -25 -21 -14 -6 -25 -18 -25 -26 0 -8 30 -42 68 -76 65 -59 66 -62 47 -76 -12 -9 -35 -14 -57 -12 -20 2 -34 0 -31 -5 9 -15 5 -79 -6 -90 -7 -7 -31 8 -81 52 l-70 62 -26 -20 c-30 -24 -54 -27 -72 -9 -33 33 -18 53 307 395 64 68 117 129 119 136 4 18 -117 131 -148 137 -19 4 -25 12 -25 32 -1 33 -33 72 -49 59 -6 -5 -20 -7 -31 -5 -11 2 -42 -3 -68 -11 -50 -15 -94 -11 -137 11 -14 7 -32 14 -40 17 -8 2 -23 32 -33 65 -22 74 -10 136 34 179 32 32 37 51 12 49 -10 0 -18 4 -19 9 0 6 -4 18 -8 28 -10 21 -1 46 18 53 24 9 76 -18 76 -40 0 -19 1 -19 23 1 62 57 131 67 212 31z m700 -16 c37 -26 45 -29 45 -14 0 20 50 45 73 36 8 -3 18 -12 21 -19 7 -20 -17 -76 -31 -71 -24 10 -22 -11 3 -35 57 -53 70 -131 35 -209 -29 -65 -117 -101 -193 -78 -64 18 -120 18 -141 0 -10 -9 -15 -22 -13 -29 10 -24 -6 -43 -35 -43 -16 0 -29 -5 -29 -11 0 -6 -19 -28 -42 -49 l-43 -38 -27 26 c-34 32 -35 42 -3 72 14 13 25 29 25 36 0 6 6 14 14 17 8 3 16 18 18 34 2 21 9 29 28 31 43 6 59 28 53 75 -3 23 -12 54 -19 69 -18 36 -18 106 1 142 8 15 15 33 15 40 0 6 22 21 48 34 67 32 137 26 197 -16z"/>
<path d="M483 1541 c-18 -11 -35 -32 -39 -46 -4 -16 -18 -31 -38 -39 -45 -19 -76 -61 -76 -104 0 -47 56 -102 105 -102 37 0 90 37 100 71 4 10 22 26 40 33 72 31 90 112 36 166 -40 40 -85 48 -128 21z"/>
<path d="M1173 1548 c-13 -6 -23 -15 -23 -20 0 -4 -9 -17 -20 -28 -31 -31 -26 -76 14 -116 19 -19 41 -34 50 -34 8 0 24 -17 35 -38 37 -72 111 -83 167 -25 32 33 36 41 31 76 -6 44 -37 82 -73 91 -13 4 -30 19 -38 34 -30 58 -94 85 -143 60z"/>
</g>


</svg>